<svg width="36" height="36" viewBox="0 0 36 36" fill="none" xmlns="http://www.w3.org/2000/svg">
<rect width="36" height="36" rx="18" fill="#F1ECFB"/>
<path d="M25.3146 13.657H10.6854C10.5035 13.657 10.3291 13.7292 10.2005 13.8578C10.0719 13.9864 9.99963 14.1609 9.99963 14.3427V23.486C10.0001 24.1527 10.2652 24.792 10.7366 25.2634C11.2081 25.7349 11.8473 25.9999 12.514 26.0004H23.486C24.1527 25.9999 24.7919 25.7349 25.2634 25.2634C25.7348 24.792 25.9999 24.1527 26.0004 23.486V14.3427C26.0004 14.1609 25.9281 13.9864 25.7995 13.8578C25.6709 13.7292 25.4965 13.657 25.3146 13.657Z" fill="#7441D8"/>
<path d="M22.5715 23.2574H20.7429C20.561 23.2574 20.3866 23.1851 20.258 23.0565C20.1294 22.9279 20.0571 22.7535 20.0571 22.5716C20.0571 22.3897 20.1294 22.2153 20.258 22.0867C20.3866 21.9581 20.561 21.8859 20.7429 21.8859H22.5715C22.7534 21.8859 22.9278 21.9581 23.0564 22.0867C23.185 22.2153 23.2573 22.3897 23.2573 22.5716C23.2573 22.7535 23.185 22.9279 23.0564 23.0565C22.9278 23.1851 22.7534 23.2574 22.5715 23.2574Z" fill="white"/>
<path d="M26.2289 9.99963H9.77097C8.88728 9.99963 8.1709 10.716 8.1709 11.5997V13.4284C8.1709 14.3121 8.88728 15.0284 9.77097 15.0284H26.2289C27.1126 15.0284 27.8289 14.3121 27.8289 13.4284V11.5997C27.8289 10.716 27.1126 9.99963 26.2289 9.99963Z" fill="#D5C6F3"/>
</svg>
