<svg width="37" height="37" viewBox="0 0 37 37" fill="none" xmlns="http://www.w3.org/2000/svg">
<rect x="0.666748" y="0.5" width="36" height="36" rx="18" fill="#F1ECFB"/>
<path d="M27.9531 17.1176C27.9537 17.1875 27.9312 17.2556 27.8891 17.3114C27.847 17.3671 27.7876 17.4074 27.7202 17.426C26.0463 17.89 24.3696 18.3473 22.6935 18.811L19.5774 15.6948L19.76 15.4304L23.0901 10.6398C23.1291 10.5814 23.1868 10.538 23.2538 10.5168C23.3207 10.4956 23.3929 10.4979 23.4584 10.5233C26.3454 11.591 28.0023 14.5557 27.9531 17.1176Z" fill="#7441D8"/>
<path d="M21.3588 20.1457C21.3084 20.3676 21.0069 21.9121 20.9527 22.1727C20.9423 22.232 20.9146 22.2869 20.8732 22.3305C20.8318 22.3742 20.7784 22.4047 20.7198 22.4182L15.0478 23.7874C14.9853 23.8186 14.9145 23.8293 14.8456 23.818C14.7766 23.8068 14.713 23.7741 14.6635 23.7247C14.6141 23.6753 14.5815 23.6117 14.5703 23.5427C14.559 23.4738 14.5697 23.403 14.6009 23.3405L15.9701 17.6685C15.9836 17.6099 16.0141 17.5565 16.0578 17.5151C16.1014 17.4737 16.1563 17.446 16.2156 17.4356C16.4844 17.3805 18.011 17.0799 18.2426 17.0295L21.3588 20.1457Z" fill="#7441D8"/>
<path opacity="0.1" d="M19.8008 18.5876L21.3589 20.1456L21.2834 20.5139L17.8745 17.1051L18.2428 17.0295L19.8008 18.5876ZM23.0429 18.7135C22.9264 18.7481 22.8099 18.7796 22.6935 18.8111L19.5774 15.6949L19.7599 15.4305L23.0429 18.7135Z" fill="black"/>
<path d="M21.359 20.1442L18.2429 17.0281L19.5784 15.6929L22.6946 18.809L21.359 20.1442Z" fill="#D5C6F3"/>
<path d="M18.0223 20.8128L15.0478 23.7873C14.9853 23.8185 14.9145 23.8292 14.8456 23.8179C14.7766 23.8067 14.713 23.774 14.6635 23.7246C14.6141 23.6752 14.5815 23.6116 14.5703 23.5426C14.559 23.4737 14.5697 23.4029 14.6009 23.3404L17.5753 20.3659C17.6047 20.3365 17.6395 20.3133 17.6779 20.2974C17.7162 20.2815 17.7573 20.2733 17.7988 20.2733C17.8403 20.2733 17.8814 20.2815 17.9198 20.2974C17.9581 20.3133 17.993 20.3365 18.0223 20.3659C18.0516 20.3952 18.0749 20.4301 18.0908 20.4684C18.1067 20.5068 18.1149 20.5479 18.1149 20.5894C18.1149 20.6309 18.1067 20.672 18.0908 20.7103C18.0749 20.7487 18.0516 20.7835 18.0223 20.8128Z" fill="white"/>
<path d="M14.1004 25.862C9.43783 24.1358 10.2653 16.9395 10.3264 16.6905C10.3396 16.6095 10.3839 16.5369 10.4499 16.4881C10.5158 16.4393 10.5983 16.4182 10.6796 16.4293C10.7609 16.4404 10.8346 16.4827 10.8851 16.5474C10.9356 16.6121 10.9589 16.6939 10.9499 16.7755C10.9408 16.8425 10.0913 23.4858 14.2244 25.2573C14.2897 25.2869 14.343 25.3379 14.3755 25.4018C14.4081 25.4657 14.418 25.5387 14.4036 25.609C14.3892 25.6792 14.3513 25.7425 14.2962 25.7884C14.2411 25.8343 14.1721 25.8605 14.1004 25.862Z" fill="#7441D8"/>
<path d="M13.471 25.8616H10.9529C10.8695 25.8616 10.7894 25.8284 10.7304 25.7694C10.6713 25.7104 10.6382 25.6303 10.6382 25.5468C10.6382 25.4633 10.6713 25.3833 10.7304 25.3242C10.7894 25.2652 10.8695 25.2321 10.9529 25.2321H13.471C13.5545 25.2321 13.6346 25.2652 13.6936 25.3242C13.7526 25.3833 13.7858 25.4633 13.7858 25.5468C13.7858 25.6303 13.7526 25.7104 13.6936 25.7694C13.6346 25.8284 13.5545 25.8616 13.471 25.8616Z" fill="#7441D8"/>
<path d="M11.2677 25.5469C11.2677 25.7974 11.1682 26.0376 10.9911 26.2146C10.814 26.3917 10.5739 26.4912 10.3234 26.4912C10.073 26.4912 9.83281 26.3917 9.65572 26.2146C9.47864 26.0376 9.37915 25.7974 9.37915 25.5469C9.37915 25.2965 9.47864 25.0563 9.65572 24.8792C9.83281 24.7021 10.073 24.6027 10.3234 24.6027C10.5739 24.6027 10.814 24.7021 10.9911 24.8792C11.1682 25.0563 11.2677 25.2965 11.2677 25.5469Z" fill="#D5C6F3"/>
<path d="M23.8583 25.8616H14.7303C14.6468 25.8616 14.5667 25.8284 14.5077 25.7694C14.4487 25.7104 14.4155 25.6303 14.4155 25.5468C14.4155 25.4633 14.4487 25.3833 14.5077 25.3242C14.5667 25.2652 14.6468 25.2321 14.7303 25.2321H23.8583C23.9418 25.2321 24.0219 25.2652 24.0809 25.3242C24.1399 25.3833 24.1731 25.4633 24.1731 25.5468C24.1731 25.6303 24.1399 25.7104 24.0809 25.7694C24.0219 25.8284 23.9418 25.8616 23.8583 25.8616Z" fill="#7441D8"/>
<path d="M23.5432 25.5469C23.5432 25.7974 23.6427 26.0376 23.8198 26.2146C23.9969 26.3917 24.2371 26.4912 24.4875 26.4912C24.7379 26.4912 24.9781 26.3917 25.1552 26.2146C25.3323 26.0376 25.4318 25.7974 25.4318 25.5469C25.4318 25.2965 25.3323 25.0563 25.1552 24.8792C24.9781 24.7021 24.7379 24.6027 24.4875 24.6027C24.2371 24.6027 23.9969 24.7021 23.8198 24.8792C23.6427 25.0563 23.5432 25.2965 23.5432 25.5469Z" fill="#D5C6F3"/>
<path d="M14.7301 26.4913C12.8472 26.4617 13.1862 26.7988 13.1563 24.9175C13.1563 24.834 13.1894 24.7539 13.2485 24.6949C13.3075 24.6359 13.3876 24.6027 13.471 24.6027H14.7301C14.8136 24.6027 14.8936 24.6359 14.9526 24.6949C15.0117 24.7539 15.0448 24.834 15.0448 24.9175V26.1765C15.0448 26.26 15.0117 26.34 14.9526 26.3991C14.8936 26.4581 14.8136 26.4913 14.7301 26.4913ZM11.2677 17.678C9.38482 17.6484 9.72382 17.9855 9.69391 16.1042C9.69391 16.0207 9.72708 15.9406 9.7861 15.8816C9.84513 15.8226 9.92519 15.7894 10.0087 15.7894H11.2677C11.3512 15.7894 11.4313 15.8226 11.4903 15.8816C11.5493 15.9406 11.5825 16.0207 11.5825 16.1042V17.3632C11.5825 17.4467 11.5493 17.5268 11.4903 17.5858C11.4313 17.6448 11.3512 17.678 11.2677 17.678Z" fill="#C7B3EF"/>
</svg>
