<svg width="37" height="37" viewBox="0 0 37 37" fill="none" xmlns="http://www.w3.org/2000/svg">
<rect x="0.333496" y="0.5" width="36" height="36" rx="18" fill="#F1ECFB"/>
<path fill-rule="evenodd" clip-rule="evenodd" d="M22.7614 22.7128C22.578 22.7132 22.3996 22.6536 22.2533 22.5433C22.1069 22.4329 22.0006 22.2778 21.9505 22.1014C21.9005 21.9251 21.9094 21.7372 21.9759 21.5664C22.0425 21.3956 22.163 21.2512 22.3192 21.1552L26.5782 18.5295V18.4815L22.3192 15.8557C22.2226 15.7989 22.1384 15.7235 22.0714 15.6337C22.0045 15.544 21.9561 15.4418 21.9291 15.3331C21.9021 15.2244 21.8971 15.1114 21.9143 15.0008C21.9316 14.8902 21.9707 14.7841 22.0295 14.6887C22.0883 14.5934 22.1655 14.5108 22.2566 14.4457C22.3477 14.3806 22.4509 14.3344 22.5602 14.3097C22.6694 14.285 22.7824 14.2823 22.8927 14.3019C23.003 14.3214 23.1082 14.3628 23.2023 14.4235L27.6751 17.181L27.7445 17.2504C28.0767 17.5836 28.2632 18.035 28.2632 18.5055C28.2632 18.976 28.0767 19.4273 27.7445 19.7605L27.6751 19.8299L23.2023 22.5874C23.0647 22.6724 22.912 22.7128 22.7614 22.7128Z" fill="#7441D8"/>
<path fill-rule="evenodd" clip-rule="evenodd" d="M13.9054 22.7128C13.7548 22.7128 13.6021 22.6724 13.4645 22.5874L8.99173 19.8299L8.92231 19.7605C8.59011 19.4273 8.40356 18.976 8.40356 18.5055C8.40356 18.0349 8.59011 17.5836 8.92231 17.2504L8.99173 17.181L13.4645 14.4235C13.6544 14.3064 13.8831 14.2696 14.1002 14.321C14.3173 14.3725 14.505 14.5081 14.6221 14.6981C14.7393 14.888 14.7761 15.1166 14.7246 15.3337C14.6732 15.5508 14.5375 15.7386 14.3476 15.8557L10.0886 18.4815V18.5294L14.3476 21.1552C14.5035 21.2514 14.6237 21.3958 14.69 21.5665C14.7564 21.7372 14.7652 21.9249 14.7152 22.1011C14.6652 22.2773 14.559 22.4324 14.4129 22.5427C14.2667 22.6531 14.0886 22.7128 13.9054 22.7128Z" fill="#7441D8"/>
<path fill-rule="evenodd" clip-rule="evenodd" d="M15.5888 26.4996C15.4524 26.4996 15.318 26.4665 15.1972 26.403C15.0764 26.3395 14.9729 26.2476 14.8955 26.1351C14.8182 26.0227 14.7694 25.8932 14.7532 25.7577C14.7371 25.6222 14.7541 25.4848 14.8029 25.3574L20.2724 11.0525C20.3108 10.9478 20.3695 10.8518 20.4453 10.77C20.5211 10.6883 20.6124 10.6223 20.7138 10.5761C20.8153 10.5299 20.9249 10.5044 21.0364 10.5009C21.1478 10.4974 21.2588 10.5161 21.363 10.5559C21.4671 10.5958 21.5623 10.6559 21.643 10.7328C21.7237 10.8097 21.7884 10.9019 21.8331 11.004C21.8779 11.1061 21.902 11.2161 21.9039 11.3275C21.9058 11.439 21.8855 11.5497 21.8443 11.6533L16.3748 25.9582C16.314 26.1174 16.2063 26.2544 16.066 26.3511C15.9257 26.4478 15.7593 26.4996 15.5888 26.4996Z" fill="#C7B3EF"/>
</svg>
