<svg width="239" height="64" viewBox="0 0 239 64" fill="none" xmlns="http://www.w3.org/2000/svg">
<rect width="64.0044" height="64.0044" rx="17.6564" fill="#E3D9F7"/>
<path d="M31.9998 14.001L13.998 38.0034L31.9998 50.0045L50.0016 38.0034L31.9998 14.001Z" fill="#AC8DE8"/>
<path d="M31.9998 14.001L13.998 38.0034L31.9998 32.0028V14.001Z" fill="#D5C6F3"/>
<path d="M50.0018 38.0025L32 32.002V50.0037L50.0018 38.0025Z" fill="#7441D8"/>
<path d="M77.9019 41.002V23.842H81.6719V41.002H77.9019ZM80.5019 41.002V37.96H91.1359V41.002H80.5019ZM80.5019 33.722V30.94H89.8359V33.722H80.5019ZM80.5019 26.858V23.842H91.0839V26.858H80.5019ZM91.2417 41.002L95.7657 34.164L91.2417 27.352H95.5577L98.0537 32.5H98.4957L100.992 27.352H105.282L100.758 34.164L105.334 41.002H101.044L98.4957 35.828H98.0537L95.5577 41.002H91.2417ZM111.83 41.366C110.652 41.366 109.62 41.1926 108.736 40.846C107.852 40.4993 107.116 40.014 106.526 39.39C105.937 38.766 105.495 38.0293 105.2 37.18C104.906 36.3133 104.758 35.3686 104.758 34.346C104.758 33.2713 104.906 32.292 105.2 31.408C105.512 30.5066 105.963 29.7266 106.552 29.068C107.142 28.4093 107.87 27.898 108.736 27.534C109.603 27.17 110.591 26.988 111.7 26.988C112.81 26.988 113.772 27.17 114.586 27.534C115.418 27.898 116.086 28.4093 116.588 29.068C117.108 29.7093 117.464 30.472 117.654 31.356L114.196 32.474C114.144 31.9366 113.997 31.4773 113.754 31.096C113.529 30.6973 113.217 30.4026 112.818 30.212C112.437 30.004 112.004 29.9 111.518 29.9C111.016 29.9 110.582 30.004 110.218 30.212C109.854 30.4026 109.542 30.6886 109.282 31.07C109.04 31.434 108.849 31.8846 108.71 32.422C108.589 32.942 108.528 33.5313 108.528 34.19C108.528 35.126 108.65 35.9233 108.892 36.582C109.152 37.2233 109.525 37.7173 110.01 38.064C110.513 38.3933 111.128 38.558 111.856 38.558C112.55 38.558 113.104 38.428 113.52 38.168C113.936 37.8906 114.24 37.544 114.43 37.128C114.638 36.6946 114.768 36.2526 114.82 35.802L118.096 36.53C118.01 37.206 117.819 37.8386 117.524 38.428C117.247 39.0173 116.848 39.5286 116.328 39.962C115.808 40.3953 115.176 40.742 114.43 41.002C113.702 41.2446 112.836 41.366 111.83 41.366ZM125.283 41.366C124.156 41.366 123.151 41.21 122.267 40.898C121.4 40.586 120.664 40.1353 120.057 39.546C119.45 38.9566 118.982 38.2286 118.653 37.362C118.341 36.4953 118.185 35.516 118.185 34.424C118.185 33.3493 118.332 32.3613 118.627 31.46C118.939 30.5413 119.39 29.7526 119.979 29.094C120.568 28.418 121.288 27.898 122.137 27.534C122.986 27.17 123.948 26.988 125.023 26.988C126.063 26.988 126.99 27.1613 127.805 27.508C128.62 27.8373 129.296 28.34 129.833 29.016C130.388 29.692 130.786 30.524 131.029 31.512C131.289 32.4826 131.384 33.6006 131.315 34.866L120.603 34.97V32.916L129.157 32.838L127.831 33.878C127.952 32.9593 127.892 32.2053 127.649 31.616C127.406 31.0266 127.051 30.5933 126.583 30.316C126.132 30.0386 125.63 29.9 125.075 29.9C124.416 29.9 123.836 30.0733 123.333 30.42C122.83 30.7666 122.44 31.278 122.163 31.954C121.886 32.6126 121.747 33.41 121.747 34.346C121.747 35.8193 122.068 36.9026 122.709 37.596C123.368 38.2893 124.226 38.636 125.283 38.636C125.768 38.636 126.176 38.5753 126.505 38.454C126.852 38.3153 127.129 38.142 127.337 37.934C127.562 37.726 127.736 37.492 127.857 37.232C127.996 36.972 128.108 36.712 128.195 36.452L131.445 37.154C131.289 37.7953 131.055 38.376 130.743 38.896C130.448 39.3986 130.05 39.8406 129.547 40.222C129.044 40.586 128.438 40.8633 127.727 41.054C127.034 41.262 126.219 41.366 125.283 41.366ZM132.746 41.002V22.412H136.438V41.002H132.746ZM138.581 41.002V27.352H142.325V41.002H138.581ZM140.479 25.298C139.751 25.298 139.188 25.1506 138.789 24.856C138.408 24.544 138.217 24.0933 138.217 23.504C138.217 22.8973 138.408 22.438 138.789 22.126C139.188 21.814 139.751 21.658 140.479 21.658C141.225 21.658 141.788 21.814 142.169 22.126C142.568 22.438 142.767 22.8973 142.767 23.504C142.767 24.076 142.568 24.518 142.169 24.83C141.788 25.142 141.225 25.298 140.479 25.298ZM147.69 41.366C146.928 41.366 146.252 41.2186 145.662 40.924C145.073 40.612 144.614 40.17 144.284 39.598C143.955 39.026 143.79 38.3153 143.79 37.466C143.79 36.7206 143.929 36.0966 144.206 35.594C144.501 35.0913 144.926 34.684 145.48 34.372C146.035 34.06 146.72 33.8 147.534 33.592C148.349 33.384 149.276 33.202 150.316 33.046C150.871 32.9593 151.322 32.8813 151.668 32.812C152.032 32.7253 152.301 32.5953 152.474 32.422C152.648 32.2313 152.734 31.9626 152.734 31.616C152.734 31.1306 152.561 30.7146 152.214 30.368C151.868 30.0213 151.322 29.848 150.576 29.848C150.074 29.848 149.606 29.9346 149.172 30.108C148.756 30.2813 148.392 30.5413 148.08 30.888C147.786 31.2346 147.569 31.6766 147.43 32.214L144.128 31.2C144.336 30.4893 144.631 29.874 145.012 29.354C145.411 28.834 145.888 28.4006 146.442 28.054C146.997 27.69 147.63 27.4213 148.34 27.248C149.051 27.0746 149.822 26.988 150.654 26.988C151.989 26.988 153.072 27.2046 153.904 27.638C154.754 28.054 155.386 28.7126 155.802 29.614C156.218 30.498 156.426 31.642 156.426 33.046V35.386C156.426 35.9926 156.435 36.608 156.452 37.232C156.487 37.856 156.522 38.4886 156.556 39.13C156.608 39.754 156.66 40.378 156.712 41.002H153.41C153.341 40.5686 153.272 40.0746 153.202 39.52C153.15 38.948 153.107 38.376 153.072 37.804H152.604C152.362 38.4626 152.015 39.0606 151.564 39.598C151.114 40.1353 150.559 40.5686 149.9 40.898C149.259 41.21 148.522 41.366 147.69 41.366ZM149.276 38.662C149.606 38.662 149.935 38.6013 150.264 38.48C150.611 38.3586 150.94 38.194 151.252 37.986C151.582 37.7606 151.876 37.4833 152.136 37.154C152.414 36.8246 152.639 36.452 152.812 36.036L152.76 33.852L153.358 33.982C153.046 34.2073 152.682 34.3893 152.266 34.528C151.85 34.6493 151.417 34.7446 150.966 34.814C150.533 34.8833 150.1 34.9613 149.666 35.048C149.233 35.1346 148.843 35.2473 148.496 35.386C148.167 35.5246 147.898 35.7153 147.69 35.958C147.5 36.1833 147.404 36.504 147.404 36.92C147.404 37.4573 147.578 37.882 147.924 38.194C148.271 38.506 148.722 38.662 149.276 38.662ZM169.905 41.366C168.779 41.366 167.765 41.2533 166.863 41.028C165.979 40.82 165.217 40.4993 164.575 40.066C163.951 39.6153 163.457 39.0606 163.093 38.402C162.747 37.726 162.547 36.9546 162.495 36.088L165.771 35.022C165.806 35.802 165.997 36.452 166.343 36.972C166.707 37.492 167.219 37.8733 167.877 38.116C168.536 38.3586 169.273 38.48 170.087 38.48C170.867 38.48 171.526 38.3846 172.063 38.194C172.601 38.0033 173.008 37.752 173.285 37.44C173.563 37.1106 173.701 36.7553 173.701 36.374C173.701 35.9233 173.528 35.5593 173.181 35.282C172.835 35.0046 172.358 34.7706 171.751 34.58C171.162 34.3893 170.486 34.2073 169.723 34.034C168.874 33.8433 168.033 33.6266 167.201 33.384C166.387 33.1413 165.641 32.8293 164.965 32.448C164.307 32.0666 163.778 31.5726 163.379 30.966C162.998 30.3593 162.807 29.5966 162.807 28.678C162.807 27.6206 163.067 26.7106 163.587 25.948C164.125 25.168 164.905 24.5613 165.927 24.128C166.95 23.6946 168.181 23.478 169.619 23.478C171.075 23.478 172.315 23.6946 173.337 24.128C174.377 24.544 175.183 25.142 175.755 25.922C176.327 26.6846 176.639 27.5946 176.691 28.652L173.311 29.588C173.311 29.0506 173.225 28.5826 173.051 28.184C172.878 27.7853 172.635 27.456 172.323 27.196C172.011 26.9186 171.621 26.7106 171.153 26.572C170.703 26.4333 170.183 26.364 169.593 26.364C168.917 26.364 168.328 26.4506 167.825 26.624C167.34 26.7973 166.967 27.0313 166.707 27.326C166.465 27.6206 166.343 27.9673 166.343 28.366C166.343 28.834 166.534 29.224 166.915 29.536C167.314 29.8306 167.834 30.0733 168.475 30.264C169.134 30.4546 169.853 30.6366 170.633 30.81C171.379 30.966 172.133 31.1653 172.895 31.408C173.675 31.6333 174.395 31.9366 175.053 32.318C175.729 32.682 176.267 33.1846 176.665 33.826C177.081 34.45 177.289 35.2386 177.289 36.192C177.289 37.232 177.012 38.142 176.457 38.922C175.903 39.702 175.071 40.3086 173.961 40.742C172.869 41.158 171.517 41.366 169.905 41.366ZM183.824 41.314C182.299 41.314 181.172 40.9153 180.444 40.118C179.734 39.3033 179.378 38.012 179.378 36.244V30.29H177.402L177.454 27.352H178.832C179.37 27.352 179.768 27.274 180.028 27.118C180.288 26.962 180.444 26.676 180.496 26.26L180.834 24.31H182.966V27.352H186.424V30.394H182.966V36.088C182.966 36.712 183.114 37.1626 183.408 37.44C183.703 37.7173 184.154 37.856 184.76 37.856C185.09 37.856 185.402 37.8213 185.696 37.752C186.008 37.6826 186.277 37.57 186.502 37.414V40.898C185.965 41.0713 185.471 41.184 185.02 41.236C184.57 41.288 184.171 41.314 183.824 41.314ZM192.416 41.366C190.822 41.366 189.617 40.8286 188.802 39.754C188.005 38.662 187.606 37.0066 187.606 34.788V27.352H191.35V34.32C191.35 35.6546 191.55 36.6513 191.948 37.31C192.347 37.9513 192.954 38.272 193.768 38.272C194.254 38.272 194.678 38.1506 195.042 37.908C195.406 37.6653 195.718 37.3273 195.978 36.894C196.238 36.4606 196.429 35.9493 196.55 35.36C196.689 34.7706 196.767 34.138 196.784 33.462V27.352H200.528V35.438V41.002H197.512L197.486 36.738H197.018C196.758 37.8126 196.429 38.6966 196.03 39.39C195.649 40.066 195.155 40.5686 194.548 40.898C193.959 41.21 193.248 41.366 192.416 41.366ZM207.628 41.366C206.484 41.366 205.479 41.0713 204.612 40.482C203.763 39.8926 203.104 39.0606 202.636 37.986C202.168 36.9113 201.934 35.6373 201.934 34.164C201.934 32.7773 202.142 31.5466 202.558 30.472C202.974 29.3973 203.589 28.5566 204.404 27.95C205.219 27.3433 206.233 27.04 207.446 27.04C208.33 27.04 209.075 27.2046 209.682 27.534C210.289 27.8633 210.783 28.3486 211.164 28.99C211.563 29.614 211.875 30.368 212.1 31.252H212.698C212.577 30.6973 212.464 30.16 212.36 29.64C212.273 29.1026 212.204 28.5913 212.152 28.106C212.1 27.6206 212.074 27.196 212.074 26.832V22.412H215.818V34.294V41.002H212.698V37.05H212.178C211.987 38.0206 211.693 38.8266 211.294 39.468C210.895 40.1093 210.384 40.586 209.76 40.898C209.153 41.21 208.443 41.366 207.628 41.366ZM208.876 38.298C209.448 38.298 209.933 38.1766 210.332 37.934C210.731 37.6913 211.06 37.3793 211.32 36.998C211.58 36.5993 211.771 36.1746 211.892 35.724C212.013 35.256 212.074 34.8226 212.074 34.424V33.93C212.074 33.6006 212.022 33.2626 211.918 32.916C211.831 32.552 211.701 32.1966 211.528 31.85C211.355 31.5033 211.138 31.2 210.878 30.94C210.618 30.6626 210.315 30.446 209.968 30.29C209.621 30.134 209.24 30.056 208.824 30.056C208.2 30.056 207.671 30.2293 207.238 30.576C206.805 30.9226 206.467 31.408 206.224 32.032C205.981 32.6386 205.86 33.3493 205.86 34.164C205.86 34.996 205.981 35.724 206.224 36.348C206.484 36.972 206.839 37.4573 207.29 37.804C207.741 38.1333 208.269 38.298 208.876 38.298ZM217.968 41.002V27.352H221.712V41.002H217.968ZM219.866 25.298C219.138 25.298 218.574 25.1506 218.176 24.856C217.794 24.544 217.604 24.0933 217.604 23.504C217.604 22.8973 217.794 22.438 218.176 22.126C218.574 21.814 219.138 21.658 219.866 21.658C220.611 21.658 221.174 21.814 221.556 22.126C221.954 22.438 222.154 22.8973 222.154 23.504C222.154 24.076 221.954 24.518 221.556 24.83C221.174 25.142 220.611 25.298 219.866 25.298ZM230.067 41.366C228.697 41.366 227.493 41.0973 226.453 40.56C225.413 40.0053 224.598 39.1993 224.009 38.142C223.419 37.0673 223.125 35.7326 223.125 34.138C223.125 32.5433 223.419 31.2173 224.009 30.16C224.615 29.1026 225.439 28.314 226.479 27.794C227.536 27.2566 228.732 26.988 230.067 26.988C231.436 26.988 232.641 27.2566 233.681 27.794C234.738 28.3313 235.561 29.1373 236.151 30.212C236.757 31.2693 237.061 32.5953 237.061 34.19C237.061 35.802 236.749 37.1453 236.125 38.22C235.518 39.2773 234.686 40.066 233.629 40.586C232.589 41.106 231.401 41.366 230.067 41.366ZM230.197 38.584C230.873 38.584 231.436 38.428 231.887 38.116C232.355 37.804 232.701 37.336 232.927 36.712C233.169 36.0706 233.291 35.2993 233.291 34.398C233.291 33.4446 233.161 32.6386 232.901 31.98C232.658 31.304 232.294 30.7926 231.809 30.446C231.323 30.082 230.708 29.9 229.963 29.9C229.321 29.9 228.767 30.056 228.299 30.368C227.831 30.6626 227.475 31.1306 227.233 31.772C226.99 32.396 226.869 33.1673 226.869 34.086C226.869 35.5593 227.163 36.6773 227.753 37.44C228.342 38.2026 229.157 38.584 230.197 38.584Z" fill="black"/>
</svg>
