<svg width="134" height="28" viewBox="0 0 134 28" fill="none" xmlns="http://www.w3.org/2000/svg">
<circle cx="26" cy="14" r="10" fill="#9067E0"/>
<rect y="4" width="20" height="20" rx="5" fill="#7441D8"/>
<path d="M50.332 23.392C48.8947 23.392 47.616 23.1867 46.496 22.776C45.376 22.3467 44.424 21.7307 43.64 20.928C42.8747 20.1067 42.2867 19.1173 41.876 17.96C41.484 16.784 41.288 15.44 41.288 13.928C41.288 12.3973 41.4933 11.0347 41.904 9.84C42.3147 8.62667 42.9027 7.59067 43.668 6.732C44.452 5.87333 45.376 5.22933 46.44 4.8C47.5227 4.352 48.7453 4.128 50.108 4.128C51.1907 4.128 52.1707 4.27733 53.048 4.576C53.9253 4.856 54.6813 5.26667 55.316 5.808C55.9507 6.33067 56.436 6.96533 56.772 7.712C57.1267 8.44 57.2947 9.26133 57.276 10.176L53.552 11.1C53.552 10.2973 53.384 9.62533 53.048 9.084C52.7307 8.54267 52.3013 8.132 51.76 7.852C51.2187 7.572 50.6213 7.432 49.968 7.432C49.408 7.432 48.8573 7.55333 48.316 7.796C47.7933 8.02 47.3173 8.384 46.888 8.888C46.4587 9.37333 46.1133 10.0173 45.852 10.82C45.6093 11.604 45.488 12.5653 45.488 13.704C45.488 15.1787 45.6933 16.392 46.104 17.344C46.5333 18.2773 47.1213 18.968 47.868 19.416C48.6333 19.864 49.492 20.088 50.444 20.088C51.4333 20.088 52.208 19.8827 52.768 19.472C53.3467 19.0427 53.7573 18.492 54 17.82C54.2613 17.148 54.4013 16.42 54.42 15.636L57.976 16.168C57.976 17.176 57.836 18.1187 57.556 18.996C57.2947 19.8733 56.856 20.6387 56.24 21.292C55.6427 21.9453 54.8587 22.4587 53.888 22.832C52.9173 23.2053 51.732 23.392 50.332 23.392ZM58.4665 23V15.776V8.3H61.8265L61.7985 13.48H62.3025C62.4331 12.192 62.6758 11.1467 63.0305 10.344C63.4038 9.52267 63.8985 8.92533 64.5145 8.552C65.1491 8.16 65.9331 7.964 66.8665 7.964C67.0531 7.964 67.2585 7.98267 67.4825 8.02C67.7065 8.03867 67.9491 8.08533 68.2105 8.16L68.0425 12.444C67.7438 12.3133 67.4265 12.22 67.0905 12.164C66.7545 12.0893 66.4465 12.052 66.1665 12.052C65.4571 12.052 64.8411 12.2293 64.3185 12.584C63.8145 12.92 63.4038 13.4147 63.0865 14.068C62.7878 14.7027 62.5918 15.4867 62.4985 16.42V23H58.4665ZM71.6149 23.392C70.8122 23.392 70.0842 23.2427 69.4309 22.944C68.7962 22.6267 68.2922 22.16 67.9189 21.544C67.5456 20.928 67.3589 20.1627 67.3589 19.248C67.3589 18.4267 67.5176 17.7453 67.8349 17.204C68.1522 16.644 68.6096 16.196 69.2069 15.86C69.8042 15.524 70.5229 15.244 71.3629 15.02C72.2216 14.796 73.1829 14.6093 74.2469 14.46C74.9002 14.348 75.4229 14.2453 75.8149 14.152C76.2256 14.0587 76.5242 13.9187 76.7109 13.732C76.8976 13.5453 76.9909 13.2747 76.9909 12.92C76.9909 12.3787 76.7949 11.9307 76.4029 11.576C76.0296 11.2027 75.4416 11.016 74.6389 11.016C74.1162 11.016 73.6216 11.1093 73.1549 11.296C72.7069 11.464 72.3242 11.744 72.0069 12.136C71.6896 12.5093 71.4749 13.004 71.3629 13.62L67.7789 12.668C67.9656 11.828 68.2642 11.1187 68.6749 10.54C69.0856 9.94267 69.5896 9.448 70.1869 9.056C70.8029 8.664 71.4936 8.37467 72.2589 8.188C73.0429 8.00133 73.8736 7.908 74.7509 7.908C76.1696 7.908 77.3269 8.14133 78.2229 8.608C79.1376 9.07467 79.8189 9.79333 80.2669 10.764C80.7149 11.7347 80.9389 12.9667 80.9389 14.46V16.98C80.9389 17.6333 80.9482 18.296 80.9669 18.968C81.0042 19.64 81.0416 20.3213 81.0789 21.012C81.1162 21.684 81.1629 22.3467 81.2189 23H77.6629C77.6069 22.4773 77.5509 21.908 77.4949 21.292C77.4389 20.676 77.4016 20.0413 77.3829 19.388H76.9349C76.7109 20.116 76.3469 20.788 75.8429 21.404C75.3576 22.02 74.7602 22.5053 74.0509 22.86C73.3416 23.2147 72.5296 23.392 71.6149 23.392ZM73.2949 20.452C73.6496 20.452 74.0136 20.3867 74.3869 20.256C74.7602 20.1253 75.1149 19.9387 75.4509 19.696C75.8056 19.4347 76.1229 19.1173 76.4029 18.744C76.6829 18.352 76.8976 17.904 77.0469 17.4L77.0189 15.356L77.6629 15.44C77.3642 15.6827 77.0002 15.8787 76.5709 16.028C76.1416 16.1587 75.6842 16.2707 75.1989 16.364C74.7322 16.4387 74.2562 16.5227 73.7709 16.616C73.3042 16.6907 72.8842 16.8027 72.5109 16.952C72.1376 17.1013 71.8389 17.3067 71.6149 17.568C71.3909 17.8293 71.2789 18.184 71.2789 18.632C71.2789 19.192 71.4656 19.64 71.8389 19.976C72.2122 20.2933 72.6976 20.452 73.2949 20.452ZM83.3684 23V13.62H81.0724V10.652L85.0764 10.848V10.372C84.3484 10.2227 83.7604 9.98 83.3124 9.644C82.883 9.28933 82.5657 8.87867 82.3604 8.412C82.1737 7.94533 82.0804 7.46 82.0804 6.956C82.0804 6.13467 82.2857 5.43467 82.6964 4.856C83.107 4.25867 83.6857 3.80133 84.4324 3.484C85.1977 3.148 86.0844 2.98 87.0924 2.98C87.9324 2.98 88.6977 3.092 89.3884 3.316C90.0977 3.52133 90.6764 3.792 91.1244 4.128L90.8164 7.768C90.3684 7.45067 89.8644 7.18933 89.3044 6.984C88.763 6.77867 88.2497 6.676 87.7644 6.676C87.2044 6.676 86.7377 6.82533 86.3644 7.124C86.0097 7.42267 85.8324 7.89867 85.8324 8.552C85.8324 9 85.9257 9.364 86.1124 9.644C86.299 9.90533 86.5417 10.1013 86.8404 10.232C87.139 10.3627 87.4564 10.4373 87.7924 10.456H91.0404V13.62H87.3164V23H83.3684ZM96.974 23.336C95.3127 23.336 94.09 22.9067 93.306 22.048C92.5407 21.1707 92.158 19.7987 92.158 17.932V11.464H90.114L90.17 8.412H91.43C92.0833 8.37467 92.5593 8.244 92.858 8.02C93.1567 7.77733 93.3433 7.376 93.418 6.816L93.726 5.024H96.022V8.3H99.718V11.576H96.022V17.736C96.022 18.408 96.1807 18.9027 96.498 19.22C96.834 19.5187 97.3193 19.668 97.954 19.668C98.29 19.668 98.6167 19.6307 98.934 19.556C99.27 19.4627 99.5593 19.332 99.802 19.164V22.888C99.2233 23.0747 98.6913 23.196 98.206 23.252C97.7393 23.308 97.3287 23.336 96.974 23.336ZM100.424 23V8.3H104.428V23H100.424ZM102.44 6.256C101.656 6.256 101.049 6.09733 100.62 5.78C100.209 5.444 100.004 4.95867 100.004 4.324C100.004 3.67067 100.209 3.176 100.62 2.84C101.049 2.504 101.656 2.336 102.44 2.336C103.242 2.336 103.849 2.504 104.26 2.84C104.689 3.176 104.904 3.67067 104.904 4.324C104.904 4.94 104.689 5.416 104.26 5.752C103.849 6.088 103.242 6.256 102.44 6.256ZM109.304 23L104.432 8.328H108.856L111.936 19.78H112.328L115.436 8.328H119.664L114.764 23H109.304ZM126.115 23.392C124.883 23.392 123.791 23.224 122.839 22.888C121.906 22.5333 121.112 22.0387 120.459 21.404C119.824 20.7507 119.339 19.9667 119.003 19.052C118.667 18.1187 118.499 17.0733 118.499 15.916C118.499 14.7773 118.658 13.7227 118.975 12.752C119.311 11.7627 119.787 10.9133 120.403 10.204C121.038 9.476 121.803 8.916 122.699 8.524C123.614 8.11333 124.659 7.908 125.835 7.908C126.974 7.908 127.972 8.09467 128.831 8.468C129.708 8.84133 130.436 9.40133 131.015 10.148C131.594 10.876 132.014 11.7627 132.275 12.808C132.536 13.8347 132.62 15.02 132.527 16.364L121.131 16.476V14.264L130.063 14.152L128.803 15.328C128.915 14.3387 128.85 13.536 128.607 12.92C128.364 12.2853 128 11.8187 127.515 11.52C127.03 11.2027 126.479 11.044 125.863 11.044C125.154 11.044 124.538 11.24 124.015 11.632C123.492 12.0053 123.082 12.5467 122.783 13.256C122.503 13.9653 122.363 14.824 122.363 15.832C122.363 17.4 122.699 18.5573 123.371 19.304C124.062 20.0507 124.976 20.424 126.115 20.424C126.638 20.424 127.076 20.3587 127.431 20.228C127.786 20.0787 128.075 19.892 128.299 19.668C128.542 19.444 128.728 19.1827 128.859 18.884C128.99 18.5853 129.092 18.2867 129.167 17.988L132.695 18.688C132.583 19.36 132.368 19.9853 132.051 20.564C131.734 21.124 131.304 21.6187 130.763 22.048C130.24 22.4773 129.596 22.804 128.831 23.028C128.066 23.2707 127.16 23.392 126.115 23.392Z" fill="black"/>
</svg>
