<svg width="165" height="48" viewBox="0 0 165 48" fill="none" xmlns="http://www.w3.org/2000/svg">
<g clip-path="url(#clip0_197_36)">
<path d="M164.608 21.8339V18.9522H161.029V14.4722L160.909 14.5093L157.548 15.5377L157.481 15.5579V18.9523H152.176V17.0613C152.176 16.1808 152.373 15.507 152.761 15.0576C153.146 14.6136 153.698 14.3879 154.4 14.3879C154.906 14.3879 155.429 14.507 155.956 14.7417L156.088 14.8007V11.7659L156.026 11.743C155.534 11.5665 154.866 11.4775 154.038 11.4775C152.994 11.4775 152.046 11.7047 151.219 12.1548C150.391 12.6056 149.74 13.2492 149.284 14.0674C148.83 14.8847 148.599 15.8286 148.599 16.8732V18.9522H146.107V21.8339H148.599V33.9739H152.176V21.8339H157.481V29.5486C157.481 32.726 158.98 34.3361 161.936 34.3361C162.421 34.3361 162.933 34.2792 163.454 34.1677C163.986 34.0533 164.348 33.939 164.561 33.817L164.608 33.7891V30.8807L164.462 30.977C164.268 31.1063 164.026 31.212 163.743 31.2907C163.458 31.3707 163.221 31.4108 163.036 31.4108C162.344 31.4108 161.832 31.2242 161.514 30.856C161.192 30.4845 161.029 29.8348 161.029 28.9259V21.8339H164.608ZM138.119 31.4113C136.821 31.4113 135.797 30.9808 135.076 30.1327C134.35 29.2804 133.982 28.0653 133.982 26.5214C133.982 24.9286 134.35 23.6819 135.076 22.8146C135.798 21.9529 136.812 21.5156 138.09 21.5156C139.33 21.5156 140.318 21.9332 141.025 22.7577C141.736 23.5863 142.096 24.823 142.096 26.4344C142.096 28.0656 141.757 29.3186 141.088 30.1568C140.424 30.9887 139.425 31.4113 138.119 31.4113V31.4113ZM138.278 18.5903C135.801 18.5903 133.834 19.3161 132.431 20.7476C131.029 22.1793 130.318 24.1605 130.318 26.6367C130.318 28.9886 131.012 30.8804 132.381 32.2587C133.749 33.6374 135.612 34.3358 137.916 34.3358C140.317 34.3358 142.245 33.5998 143.647 32.1485C145.049 30.6988 145.76 28.7363 145.76 26.3179C145.76 23.9292 145.093 22.0233 143.778 20.6542C142.462 19.2846 140.612 18.5903 138.278 18.5903V18.5903ZM124.551 18.5903C122.866 18.5903 121.472 19.0213 120.408 19.8711C119.336 20.7259 118.793 21.847 118.793 23.2037C118.793 23.9089 118.91 24.5353 119.141 25.0667C119.373 25.5997 119.733 26.0691 120.21 26.463C120.684 26.8537 121.415 27.2629 122.384 27.6793C123.199 28.0146 123.807 28.2982 124.193 28.5217C124.57 28.7407 124.838 28.9609 124.989 29.1754C125.136 29.3852 125.21 29.6724 125.21 30.0269C125.21 31.0361 124.454 31.5271 122.899 31.5271C122.322 31.5271 121.665 31.4067 120.944 31.1692C120.228 30.9354 119.553 30.5929 118.941 30.1538L118.793 30.0473V33.4912L118.847 33.5166C119.353 33.7502 119.991 33.9473 120.744 34.1023C121.494 34.2575 122.176 34.3364 122.769 34.3364C124.597 34.3364 126.07 33.9034 127.144 33.0485C128.225 32.1878 128.773 31.0402 128.773 29.6366C128.773 28.6241 128.478 27.7558 127.897 27.0555C127.319 26.3609 126.317 25.7232 124.919 25.1595C123.805 24.7125 123.092 24.3415 122.798 24.0566C122.514 23.7815 122.37 23.3923 122.37 22.8995C122.37 22.4627 122.548 22.1127 122.913 21.8293C123.281 21.5444 123.793 21.3996 124.435 21.3996C125.031 21.3996 125.641 21.4937 126.247 21.6782C126.853 21.8627 127.386 22.1098 127.83 22.4121L127.976 22.512V19.2451L127.92 19.221C127.51 19.0452 126.969 18.8948 126.313 18.7727C125.659 18.6515 125.067 18.5903 124.551 18.5903V18.5903ZM109.468 31.4113C108.17 31.4113 107.146 30.9808 106.425 30.1327C105.699 29.2804 105.331 28.0656 105.331 26.5214C105.331 24.9286 105.699 23.6819 106.425 22.8146C107.147 21.9529 108.16 21.5156 109.439 21.5156C110.679 21.5156 111.666 21.9332 112.374 22.7577C113.085 23.5863 113.445 24.823 113.445 26.4344C113.445 28.0656 113.106 29.3186 112.437 30.1568C111.773 30.9887 110.774 31.4113 109.468 31.4113V31.4113ZM109.627 18.5903C107.15 18.5903 105.182 19.3161 103.78 20.7476C102.378 22.1793 101.667 24.1605 101.667 26.6367C101.667 28.9896 102.361 30.8804 103.73 32.2587C105.098 33.6374 106.961 34.3358 109.265 34.3358C111.666 34.3358 113.594 33.5998 114.997 32.1485C116.398 30.6988 117.109 28.7363 117.109 26.3179C117.109 23.9292 116.442 22.0233 115.127 20.6542C113.811 19.2846 111.96 18.5903 109.627 18.5903V18.5903ZM96.2371 21.5536V18.9522H92.7036V33.9736H96.2371V26.2895C96.2371 24.983 96.5333 23.9095 97.1179 23.0988C97.695 22.2977 98.4641 21.8917 99.4031 21.8917C99.7214 21.8917 100.079 21.9442 100.466 22.048C100.849 22.1512 101.126 22.2633 101.29 22.3812L101.438 22.4888V18.9265L101.381 18.9019C101.052 18.7621 100.586 18.6916 99.9972 18.6916C99.1092 18.6916 98.3146 18.9769 97.634 19.5387C97.0366 20.0324 96.6048 20.7094 96.2746 21.5536H96.2371ZM86.3758 18.5903C84.7547 18.5903 83.3088 18.9379 82.0789 19.6231C80.8465 20.31 79.8934 21.2905 79.2449 22.5373C78.5993 23.7811 78.2715 25.234 78.2715 26.8543C78.2715 28.2736 78.5893 29.5761 79.2175 30.724C79.846 31.8738 80.7356 32.7733 81.8616 33.3972C82.9861 34.0203 84.2857 34.3362 85.7246 34.3362C87.4038 34.3362 88.8376 34.0005 89.9871 33.3384L90.0335 33.3118V30.0746L89.885 30.183C89.3643 30.5623 88.7824 30.8651 88.1563 31.0832C87.5318 31.3011 86.9624 31.4113 86.4631 31.4113C85.0766 31.4113 83.9636 30.9774 83.1557 30.1221C82.346 29.2657 81.9355 28.0631 81.9355 26.5498C81.9355 25.027 82.3636 23.7935 83.2073 22.8834C84.0485 21.9759 85.1636 21.5156 86.5214 21.5156C87.6828 21.5156 88.8146 21.9088 89.8853 22.6855L90.0335 22.7932V19.3822L89.9856 19.3553C89.5827 19.1297 89.0332 18.9435 88.3509 18.8022C87.6716 18.6613 87.0071 18.5903 86.3758 18.5903V18.5903ZM75.838 18.9523H72.3045V33.9736H75.838V18.9523V18.9523ZM74.1074 12.5532C73.5258 12.5532 73.0186 12.7512 72.6018 13.1435C72.1834 13.5369 71.9711 14.0322 71.9711 14.6168C71.9711 15.1922 72.1808 15.6785 72.5953 16.0615C73.0071 16.4433 73.516 16.6368 74.1075 16.6368C74.6989 16.6368 75.2096 16.4433 75.6263 16.0621C76.0458 15.6785 76.2585 15.1923 76.2585 14.6168C76.2585 14.0527 76.0515 13.5624 75.6436 13.1593C75.2361 12.757 74.719 12.5532 74.1074 12.5532ZM65.2911 17.844V33.9736H68.8972V13.013H63.9062L57.5624 28.5819L51.4061 13.013H46.2119V33.9734H49.6007V17.8425H49.717L56.2179 33.9736H58.7753L65.1748 17.844H65.2911V17.844Z" fill="white"/>
<path d="M17.3725 22.6313H0.75V6.00879H17.3725V22.6313Z" fill="#F1511B"/>
<path d="M35.7257 22.6313H19.1035V6.00879H35.7257V22.6313Z" fill="#80CC28"/>
<path d="M17.372 40.991H0.75V24.3687H17.372V40.991Z" fill="#00ADEF"/>
<path d="M35.7257 40.991H19.1035V24.3687H35.7257V40.991Z" fill="#FBBC09"/>
</g>
<defs>
<clipPath id="clip0_197_36">
<rect width="164" height="48" fill="white" transform="translate(0.75)"/>
</clipPath>
</defs>
</svg>
