<svg width="114" height="114" viewBox="0 0 114 114" fill="none" xmlns="http://www.w3.org/2000/svg">
<rect width="114" height="114" rx="57" fill="#F4F0FC"/>
<g clip-path="url(#clip0_35_84)">
<path d="M71.7597 57.4494L55.8013 78.5413C55.0829 79.4905 53.9628 79.61 53.0977 79.1943C52.2672 78.7973 51.673 77.9069 51.8953 76.7868L54.7634 62.3662H45.1334C44.9419 62.3662 44.7551 62.3521 44.5738 62.3251C44.1497 62.2615 43.7583 62.1279 43.4061 61.9374C41.9393 61.1451 41.1677 59.3813 41.6367 57.7474C41.7553 57.3344 41.9543 56.929 42.2402 56.5506L58.1985 35.4587C59.6055 33.5987 62.5595 34.9253 62.1045 37.2132L59.2365 51.6338H68.8664C71.8625 51.6338 73.5665 55.0605 71.7597 57.4494Z" fill="white"/>
<path d="M54.6728 57.7474H41.6367C41.1668 59.3814 41.9403 61.1443 43.407 61.9374H43.4061C43.4126 61.9412 43.4192 61.944 43.4257 61.9477C43.4397 61.9552 43.4537 61.9617 43.4677 61.9692C43.507 61.9897 43.5472 62.0094 43.5883 62.028C43.6041 62.0355 43.62 62.043 43.6368 62.0505C43.6798 62.0701 43.7237 62.0878 43.7676 62.1056C43.7798 62.1103 43.7919 62.1159 43.8041 62.1205C43.8601 62.142 43.9171 62.1626 43.9741 62.1822C43.9862 62.1859 43.9984 62.1897 44.0115 62.1934C44.0563 62.2074 44.1021 62.2214 44.1479 62.2345C44.1684 62.2401 44.189 62.2457 44.2086 62.2504C44.2497 62.2607 44.2908 62.2709 44.3319 62.2793C44.3515 62.284 44.3721 62.2887 44.3917 62.2924C44.4515 62.3046 44.5122 62.3158 44.5739 62.3251C44.7551 62.3522 44.9419 62.3662 45.1335 62.3662H54.7634L51.8954 76.7869C51.673 77.907 52.2672 78.7973 53.0977 79.1944L60.0222 61.8188C60.7994 59.8672 59.3626 57.7474 57.2625 57.7474H54.6728Z" fill="#7441D8"/>
<path d="M73.3685 53.0211C72.5127 51.3012 70.7872 50.2325 68.8664 50.2325H60.9442L63.4788 37.486C63.8132 35.8044 62.9864 34.204 61.4226 33.5015C59.8596 32.7999 58.1145 33.2474 57.0812 34.6132L41.1228 55.7052C39.9644 57.2373 39.7757 59.258 40.6314 60.9788C41.4872 62.6987 43.2127 63.7675 45.1335 63.7675H53.0557L50.5211 76.514C50.1867 78.1956 51.0135 79.7959 52.5773 80.4985C53.0697 80.719 53.5807 80.8264 54.0824 80.8264C55.1698 80.8264 56.2115 80.3219 56.9187 79.3868L57.3848 78.7702C57.8632 78.1368 57.7212 77.2334 57.0719 76.7775C56.4544 76.3449 55.6052 76.4785 55.1502 77.0802L54.6849 77.6958C54.3402 78.1508 53.8993 78.0191 53.7255 77.9415C53.5517 77.863 53.1594 77.6211 53.2705 77.0605L56.1386 62.6399C56.2208 62.2279 56.1143 61.8019 55.8481 61.4768C55.5818 61.1526 55.1838 60.9648 54.7644 60.9648H45.1335C44.2702 60.9648 43.5257 60.5033 43.1408 59.7307C42.7559 58.9572 42.8371 58.0846 43.3584 57.3961L59.3159 36.3042C59.5083 36.051 59.7297 35.9791 59.9194 35.9791C60.0689 35.9791 60.1987 36.0248 60.2753 36.0594C60.4491 36.1369 60.8415 36.3789 60.7303 36.9394L57.8622 51.3601C57.78 51.7721 57.8865 52.1981 58.1528 52.5223C58.419 52.8474 58.817 53.0352 59.2365 53.0352H68.8664C69.7297 53.0352 70.4742 53.4967 70.8591 54.2693C71.244 55.0428 71.1628 55.9154 70.6415 56.6039L59.1543 71.7878C58.675 72.4212 58.817 73.3255 59.4672 73.7805L59.4682 73.7814C60.0857 74.214 60.9349 74.0804 61.3899 73.4797L72.878 58.2958C74.0355 56.7627 74.2242 54.742 73.3685 53.0211Z" fill="#0C0716"/>
</g>
<defs>
<clipPath id="clip0_35_84">
<rect width="47.8322" height="47.8322" fill="white" transform="translate(33.084 33.0839)"/>
</clipPath>
</defs>
</svg>
