<svg width="212" height="46" viewBox="0 0 212 46" fill="none" xmlns="http://www.w3.org/2000/svg">
<path d="M30.6309 1.84642C27.2806 -0.615471 22.7194 -0.615473 19.369 1.84642L12.4848 6.90508L3.8528 13.2928C1.42947 15.0861 0 17.9222 0 20.9369V36.4895C0 41.7414 4.25753 45.999 9.50946 45.999H13.3135V29.5914C13.3133 26.5247 14.3798 23.5471 16.3373 21.1912C18.4453 18.654 21.4278 17.029 24.6761 16.6476C27.9244 16.2662 31.1936 17.1573 33.8167 19.139C36.4397 21.1207 38.2188 24.0436 38.791 27.3112L32.3507 28.4729C32.0701 26.8702 31.1975 25.4366 29.9109 24.4646C28.6244 23.4926 27.0209 23.0556 25.4277 23.2426C23.8345 23.4297 22.3717 24.2268 21.3378 25.4711C20.3038 26.7155 19.7767 28.3135 19.864 29.9389C19.9513 31.5643 20.6464 33.0946 21.8075 34.2176C22.9686 35.3405 24.5081 35.9715 26.1119 35.9817C27.7156 35.9919 29.2628 35.3805 30.4376 34.2724C31.6125 33.1643 32.3264 31.6429 32.4337 30.0187L38.9603 30.463C38.7414 33.7744 37.2859 36.8763 34.8906 39.1356C32.4953 41.3949 29.3408 42.6414 26.0709 42.6206C23.5434 42.6045 21.0942 41.8323 19.0192 40.4251V45.999H25L40.5005 45.9827C45.7485 45.9772 50 41.7213 50 36.4732V20.9369C50 17.9222 48.5705 15.0861 46.1472 13.2928L37.5152 6.90508L30.6309 1.84642Z" fill="#4F46E5"/>
<path d="M60.196 44.6995V17.9155H64.624V21.8035L64.192 20.8315C64.864 19.7755 65.776 18.9595 66.928 18.3835C68.08 17.7835 69.412 17.4835 70.924 17.4835C72.772 17.4835 74.44 17.9395 75.928 18.8515C77.416 19.7635 78.592 20.9875 79.456 22.5235C80.344 24.0595 80.788 25.7875 80.788 27.7075C80.788 29.6035 80.356 31.3315 79.492 32.8915C78.628 34.4515 77.452 35.6875 75.964 36.5995C74.476 37.4875 72.784 37.9315 70.888 37.9315C69.472 37.9315 68.164 37.6555 66.964 37.1035C65.788 36.5275 64.852 35.7115 64.156 34.6555L64.912 33.7195V44.6995H60.196ZM70.348 33.6115C71.428 33.6115 72.388 33.3595 73.228 32.8555C74.068 32.3515 74.716 31.6555 75.172 30.7675C75.652 29.8795 75.892 28.8595 75.892 27.7075C75.892 26.5555 75.652 25.5475 75.172 24.6835C74.716 23.7955 74.068 23.0995 73.228 22.5955C72.388 22.0675 71.428 21.8035 70.348 21.8035C69.316 21.8035 68.38 22.0555 67.54 22.5595C66.724 23.0635 66.076 23.7715 65.596 24.6835C65.14 25.5715 64.912 26.5795 64.912 27.7075C64.912 28.8595 65.14 29.8795 65.596 30.7675C66.076 31.6555 66.724 32.3515 67.54 32.8555C68.38 33.3595 69.316 33.6115 70.348 33.6115Z" fill="#4F46E5"/>
<path d="M82.5835 37.4995V17.9155H87.0115V22.2715L86.6515 21.6235C87.1075 20.1595 87.8155 19.1395 88.7755 18.5635C89.7595 17.9875 90.9355 17.6995 92.3035 17.6995H93.4555V21.8755H91.7635C90.4195 21.8755 89.3395 22.2955 88.5235 23.1355C87.7075 23.9515 87.2995 25.1035 87.2995 26.5915V37.4995H82.5835Z" fill="#4F46E5"/>
<path d="M103.824 37.9315C101.904 37.9315 100.152 37.4875 98.5683 36.5995C97.0083 35.7115 95.7603 34.4995 94.8243 32.9635C93.9123 31.4275 93.4563 29.6755 93.4563 27.7075C93.4563 25.7395 93.9123 23.9875 94.8243 22.4515C95.7603 20.9155 97.0083 19.7035 98.5683 18.8155C100.128 17.9275 101.88 17.4835 103.824 17.4835C105.744 17.4835 107.484 17.9275 109.044 18.8155C110.604 19.7035 111.84 20.9155 112.752 22.4515C113.688 23.9635 114.156 25.7155 114.156 27.7075C114.156 29.6755 113.688 31.4275 112.752 32.9635C111.816 34.4995 110.568 35.7115 109.008 36.5995C107.448 37.4875 105.72 37.9315 103.824 37.9315ZM103.824 33.6115C104.88 33.6115 105.804 33.3595 106.596 32.8555C107.412 32.3515 108.048 31.6555 108.504 30.7675C108.984 29.8555 109.224 28.8355 109.224 27.7075C109.224 26.5555 108.984 25.5475 108.504 24.6835C108.048 23.7955 107.412 23.0995 106.596 22.5955C105.804 22.0675 104.88 21.8035 103.824 21.8035C102.744 21.8035 101.796 22.0675 100.98 22.5955C100.164 23.0995 99.5163 23.7955 99.0363 24.6835C98.5803 25.5475 98.3523 26.5555 98.3523 27.7075C98.3523 28.8355 98.5803 29.8555 99.0363 30.7675C99.5163 31.6555 100.164 32.3515 100.98 32.8555C101.796 33.3595 102.744 33.6115 103.824 33.6115Z" fill="#4F46E5"/>
<path d="M115.933 44.6995V17.9155H120.361V21.8035L119.929 20.8315C120.601 19.7755 121.513 18.9595 122.665 18.3835C123.817 17.7835 125.149 17.4835 126.661 17.4835C128.509 17.4835 130.177 17.9395 131.665 18.8515C133.153 19.7635 134.329 20.9875 135.193 22.5235C136.081 24.0595 136.525 25.7875 136.525 27.7075C136.525 29.6035 136.093 31.3315 135.229 32.8915C134.365 34.4515 133.189 35.6875 131.701 36.5995C130.213 37.4875 128.521 37.9315 126.625 37.9315C125.209 37.9315 123.901 37.6555 122.701 37.1035C121.525 36.5275 120.589 35.7115 119.893 34.6555L120.649 33.7195V44.6995H115.933ZM126.085 33.6115C127.165 33.6115 128.125 33.3595 128.965 32.8555C129.805 32.3515 130.453 31.6555 130.909 30.7675C131.389 29.8795 131.629 28.8595 131.629 27.7075C131.629 26.5555 131.389 25.5475 130.909 24.6835C130.453 23.7955 129.805 23.0995 128.965 22.5955C128.125 22.0675 127.165 21.8035 126.085 21.8035C125.053 21.8035 124.117 22.0555 123.277 22.5595C122.461 23.0635 121.813 23.7715 121.333 24.6835C120.877 25.5715 120.649 26.5795 120.649 27.7075C120.649 28.8595 120.877 29.8795 121.333 30.7675C121.813 31.6555 122.461 32.3515 123.277 32.8555C124.117 33.3595 125.053 33.6115 126.085 33.6115Z" fill="#4F46E5"/>
<path d="M144.26 37.9315C142.892 37.9315 141.704 37.7035 140.696 37.2475C139.688 36.7915 138.908 36.1435 138.356 35.3035C137.804 34.4395 137.528 33.4435 137.528 32.3155C137.528 31.2355 137.768 30.2755 138.248 29.4355C138.728 28.5715 139.472 27.8515 140.48 27.2755C141.488 26.6995 142.76 26.2915 144.296 26.0515L150.704 25.0075V28.6075L145.196 29.5435C144.26 29.7115 143.564 30.0115 143.108 30.4435C142.652 30.8755 142.424 31.4395 142.424 32.1355C142.424 32.8075 142.676 33.3475 143.18 33.7555C143.708 34.1395 144.356 34.3315 145.124 34.3315C146.108 34.3315 146.972 34.1275 147.716 33.7195C148.484 33.2875 149.072 32.6995 149.48 31.9555C149.912 31.2115 150.128 30.3955 150.128 29.5075V24.4675C150.128 23.6275 149.792 22.9315 149.12 22.3795C148.472 21.8035 147.608 21.5155 146.528 21.5155C145.52 21.5155 144.62 21.7915 143.828 22.3435C143.06 22.8715 142.496 23.5795 142.136 24.4675L138.284 22.5955C138.668 21.5635 139.268 20.6755 140.084 19.9315C140.924 19.1635 141.908 18.5635 143.036 18.1315C144.164 17.6995 145.388 17.4835 146.708 17.4835C148.316 17.4835 149.732 17.7835 150.956 18.3835C152.18 18.9595 153.128 19.7755 153.8 20.8315C154.496 21.8635 154.844 23.0755 154.844 24.4675V37.4995H150.38V34.1515L151.388 34.0795C150.884 34.9195 150.284 35.6275 149.588 36.2035C148.892 36.7555 148.1 37.1875 147.212 37.4995C146.324 37.7875 145.34 37.9315 144.26 37.9315Z" fill="#4F46E5"/>
<path d="M165.979 37.7155C163.771 37.7155 162.055 37.1155 160.831 35.9155C159.631 34.6915 159.031 32.9755 159.031 30.7675V22.1275H155.647V17.9155H156.007C156.967 17.9155 157.711 17.6635 158.239 17.1595C158.767 16.6555 159.031 15.9235 159.031 14.9635V13.4515H163.747V17.9155H168.247V22.1275H163.747V30.5155C163.747 31.1635 163.855 31.7155 164.071 32.1715C164.311 32.6275 164.671 32.9755 165.151 33.2155C165.655 33.4555 166.291 33.5755 167.059 33.5755C167.227 33.5755 167.419 33.5635 167.635 33.5395C167.875 33.5155 168.103 33.4915 168.319 33.4675V37.4995C167.983 37.5475 167.599 37.5955 167.167 37.6435C166.735 37.6915 166.339 37.7155 165.979 37.7155Z" fill="#4F46E5"/>
<path d="M170.123 37.4995V17.9155H174.839V37.4995H170.123ZM170.123 15.7195V10.6795H174.839V15.7195H170.123Z" fill="#4F46E5"/>
<path d="M175.701 37.4995V33.6835L187.077 20.5075L187.797 22.1275H176.205V17.9155H191.973V21.7675L180.813 34.9435L180.093 33.3235H192.045V37.4995H175.701Z" fill="#4F46E5"/>
<path d="M202.213 37.9315C200.197 37.9315 198.433 37.4755 196.921 36.5635C195.409 35.6515 194.233 34.4155 193.393 32.8555C192.553 31.2955 192.133 29.5675 192.133 27.6715C192.133 25.7035 192.553 23.9635 193.393 22.4515C194.257 20.9155 195.421 19.7035 196.885 18.8155C198.373 17.9275 200.029 17.4835 201.853 17.4835C203.389 17.4835 204.733 17.7355 205.885 18.2395C207.061 18.7435 208.057 19.4395 208.873 20.3275C209.689 21.2155 210.313 22.2355 210.745 23.3875C211.177 24.5155 211.393 25.7395 211.393 27.0595C211.393 27.3955 211.369 27.7435 211.321 28.1035C211.297 28.4635 211.237 28.7755 211.141 29.0395H196.021V25.4395H208.477L206.245 27.1315C206.461 26.0275 206.401 25.0435 206.065 24.1795C205.753 23.3155 205.225 22.6315 204.481 22.1275C203.761 21.6235 202.885 21.3715 201.853 21.3715C200.869 21.3715 199.993 21.6235 199.225 22.1275C198.457 22.6075 197.869 23.3275 197.461 24.2875C197.077 25.2235 196.933 26.3635 197.029 27.7075C196.933 28.9075 197.089 29.9755 197.497 30.9115C197.929 31.8235 198.553 32.5315 199.369 33.0355C200.209 33.5395 201.169 33.7915 202.249 33.7915C203.329 33.7915 204.241 33.5635 204.985 33.1075C205.753 32.6515 206.353 32.0395 206.785 31.2715L210.601 33.1435C210.217 34.0795 209.617 34.9075 208.801 35.6275C207.985 36.3475 207.013 36.9115 205.885 37.3195C204.781 37.7275 203.557 37.9315 202.213 37.9315Z" fill="#4F46E5"/>
</svg>
