<svg width="37" height="37" viewBox="0 0 37 37" fill="none" xmlns="http://www.w3.org/2000/svg">
<rect x="0.666748" y="0.5" width="36" height="36" rx="18" fill="#F1ECFB"/>
<g clip-path="url(#clip0_35_133)">
<path d="M25.6166 23.6249V26.4998H11.717V23.6249C11.717 21.9499 12.792 20.5 14.342 19.85C14.367 19.85 14.367 19.825 14.392 19.825C14.692 19.7 14.9919 19.625 15.3169 19.55C15.3419 19.55 15.3419 19.55 15.3669 19.55C15.5919 19.525 15.8169 19.5 16.0419 19.5C16.0669 19.5 21.2917 19.5 21.3167 19.5C21.5167 19.5 21.7417 19.525 21.9167 19.55C21.9417 19.55 21.9417 19.55 21.9667 19.55C22.2917 19.6 22.5917 19.7 22.8917 19.8C22.9167 19.8 22.9167 19.825 22.9417 19.825C24.5167 20.45 25.6166 21.8999 25.6166 23.6249Z" fill="#7441D8"/>
<path d="M20.5658 18.6249V19.1747C20.5658 20.2244 19.716 21.0742 18.6663 21.0742C17.6166 21.0742 16.7668 20.2244 16.7668 19.1747V18.6249H20.5658Z" fill="#E3D9F7"/>
<path d="M18.5917 10.9252C20.6166 10.9252 22.2916 12.5752 22.2916 14.6251V15.1001H14.9168V14.6251C14.9168 12.5752 16.5667 10.9252 18.5917 10.9252ZM18.5917 10.5002C16.3167 10.5002 14.4668 12.3502 14.4668 14.6251V15.5001H22.6915V14.6001C22.7165 12.3502 20.8666 10.5002 18.5917 10.5002Z" fill="#0C0616"/>
<path d="M23.2413 15.6749C23.2413 15.8998 23.1413 16.0748 23.0164 16.2248C22.8664 16.3747 22.6665 16.4497 22.4665 16.4497H22.3416V14.8751H22.4665C22.8914 14.9001 23.2413 15.25 23.2413 15.6749Z" fill="#C7B3EF"/>
<path d="M22.5163 14.9499V16.5745C22.5163 16.7994 22.3163 16.9993 22.0914 16.9993H21.3916V14.525H22.0914C22.3163 14.525 22.5163 14.7 22.5163 14.9499Z" fill="#AC8DE8"/>
<path d="M14.092 15.8247C14.092 15.5998 14.192 15.4248 14.317 15.2749C14.4669 15.1249 14.6669 15.0499 14.8668 15.0499H14.9918V16.6245H14.8668C14.4419 16.6245 14.092 16.2746 14.092 15.8247Z" fill="#C7B3EF"/>
<path d="M14.8169 16.5496V14.925C14.8169 14.7001 15.0168 14.5001 15.2418 14.5001H15.9416V16.9744H15.2418C15.0168 16.9744 14.8169 16.7995 14.8169 16.5496Z" fill="#AC8DE8"/>
<path d="M21.5915 14.775V16.8249C21.5915 18.4499 20.2916 19.7499 18.6666 19.7499C17.0417 19.7499 15.7417 18.4249 15.7417 16.8249V14.775C15.7417 13.1501 17.0667 11.8501 18.6666 11.8501C19.4666 11.8501 20.2166 12.1751 20.7415 12.7001C21.2665 13.2251 21.5915 13.95 21.5915 14.775Z" fill="#F1ECFB"/>
<path d="M21.5915 14.7251H18.0916L17.5416 13.6251L17.0167 14.7251H15.7417C15.7667 13.1252 17.0667 11.8252 18.6666 11.8252C19.4666 11.8252 20.2166 12.1502 20.7415 12.6752C21.2665 13.2002 21.5915 13.9251 21.5915 14.7251Z" fill="#0C0616"/>
</g>
<defs>
<clipPath id="clip0_35_133">
<rect width="15.9995" height="15.9995" fill="white" transform="translate(10.667 10.5002)"/>
</clipPath>
</defs>
</svg>
